# xmcd
#
# Track frame offsets:
#	150
#	19285
#	33040
#	58212
#	78012
#	99417
#	114417
#	132280
#	152067
#	168815
#	183325
#	200295
#	221247
#	247130
#
# Disc length: 4379 seconds
#
# Revision: 4
# Processed by: cddbd v1.5.1PL0 Copyright (c) Steve Scherf et al.
# Submitted via: EasyCDDAExtractor 8.2.1.1
#
DISCID=b611190e
DTITLE=Various Artist - A Tribute to Howlin' Wolf
DYEAR=1900
DGENRE=Blues
TTITLE0=Taj Mahal, Hubert Sumlin - Saddle My Pony - 
TTITLE1=Christine Ohlman, Eddie Shaw, Hubert Sumlin - Howlin' for My Darling -
TTITLE1=
TTITLE2=Kenny Neal, Hubert Sumlin - The Red Rooster -
TTITLE3=Colin Linden, James Cotton, Hubert Sumlin - Just Like I Treat You - 
TTITLE4=Eddie Shaw, Hubert Sumlin - Built for Comfort -
TTITLE5=Debbie Davies, Hubert Sumlin, Colin Linden - Ooh Baby (Hold Me) - 
TTITLE6=Cub Koda, Lucky Peterson, Hubert Sumlin - Riding in the Moonlight - 
TTITLE7=Ronnie Hawkins, Cub Koda, Hubert Sumlin, Colin Linden - Back Door Man 
TTITLE7=
TTITLE8=Sam Lay,Hubert Sumlin, Colin Linden, Eddie Shaw - Baby How Long - 
TTITLE9=Hubert Sumlin, Colin Linden - Killing Floor -
TTITLE10=Colin James, Cub Koda, Hubert Sumlin - Howlin' Wolf Boogie - 
TTITLE11=Christine Ohlman, Lucky Peterson  - Smokestack Lightnin' -
TTITLE12=Lucinda Williams, Colin Linden - Come to Me Baby - 
TTITLE13=Various Artist - Data Track
EXTD=
EXTT0=
EXTT1=
EXTT2=
EXTT3=
EXTT4=
EXTT5=
EXTT6=
EXTT7=
EXTT8=
EXTT9=
EXTT10=
EXTT11=
EXTT12=
EXTT13=
PLAYORDER=
